<mxfile host="app.diagrams.net" modified="2021-04-22T15:10:48.560Z" agent="5.0 (Macintosh; Intel Mac OS X 10_15_6) AppleWebKit/605.1.15 (KHTML, like Gecko) Version/14.0.3 Safari/605.1.15" etag="NT4f_7FzJbYVWCoDQjT0" version="14.6.5" type="github">
  <diagram id="9x6UDvH0Cp7vfsusiMpG" name="第 1 页">
    <mxGraphModel dx="1379" dy="546" grid="1" gridSize="10" guides="1" tooltips="1" connect="1" arrows="1" fold="1" page="1" pageScale="1" pageWidth="827" pageHeight="1169" math="0" shadow="0">
      <root>
        <mxCell id="0" />
        <mxCell id="1" parent="0" />
        <mxCell id="qCoTKjnpwcHFoO7noeCt-14" value="内核进程" style="rounded=1;whiteSpace=wrap;html=1;labelBackgroundColor=none;fontSize=16;verticalAlign=top;fillColor=#f9f7ed;strokeColor=none;" vertex="1" parent="1">
          <mxGeometry x="480" y="65" width="380" height="390" as="geometry" />
        </mxCell>
        <mxCell id="qCoTKjnpwcHFoO7noeCt-13" value="应用进程" style="rounded=1;whiteSpace=wrap;html=1;labelBackgroundColor=none;fontSize=16;verticalAlign=top;fillColor=#f9f7ed;strokeColor=none;" vertex="1" parent="1">
          <mxGeometry x="60" y="70" width="250" height="380" as="geometry" />
        </mxCell>
        <mxCell id="qCoTKjnpwcHFoO7noeCt-5" value="1.1 创建" style="edgeStyle=orthogonalEdgeStyle;rounded=0;orthogonalLoop=1;jettySize=auto;html=1;fontSize=16;" edge="1" parent="1" source="qCoTKjnpwcHFoO7noeCt-1" target="qCoTKjnpwcHFoO7noeCt-4">
          <mxGeometry relative="1" as="geometry" />
        </mxCell>
        <mxCell id="qCoTKjnpwcHFoO7noeCt-11" value="1.3 注册&lt;br&gt;Proactor、Handler" style="edgeStyle=orthogonalEdgeStyle;rounded=0;orthogonalLoop=1;jettySize=auto;html=1;entryX=0;entryY=0.5;entryDx=0;entryDy=0;fontSize=16;" edge="1" parent="1" source="qCoTKjnpwcHFoO7noeCt-1" target="qCoTKjnpwcHFoO7noeCt-6">
          <mxGeometry relative="1" as="geometry" />
        </mxCell>
        <mxCell id="qCoTKjnpwcHFoO7noeCt-12" value="1.2 创建" style="rounded=0;orthogonalLoop=1;jettySize=auto;html=1;entryX=0;entryY=0;entryDx=0;entryDy=0;fontSize=16;" edge="1" parent="1" source="qCoTKjnpwcHFoO7noeCt-1" target="qCoTKjnpwcHFoO7noeCt-8">
          <mxGeometry relative="1" as="geometry" />
        </mxCell>
        <mxCell id="qCoTKjnpwcHFoO7noeCt-1" value="&lt;span style=&quot;font-size: 16px; color: rgb(51, 51, 51); font-family: &amp;quot;pingfang sc&amp;quot;, &amp;quot;lantinghei sc&amp;quot;, &amp;quot;microsoft yahei&amp;quot;, &amp;quot;hiragino sans gb&amp;quot;, &amp;quot;microsoft sans serif&amp;quot;, &amp;quot;wenquanyi micro hei&amp;quot;, helvetica, sans-serif;&quot;&gt;Proactor Initiator&lt;/span&gt;" style="ellipse;whiteSpace=wrap;html=1;fillColor=#cce5ff;strokeColor=none;labelBackgroundColor=none;" vertex="1" parent="1">
          <mxGeometry x="80" y="130" width="210" height="100" as="geometry" />
        </mxCell>
        <mxCell id="qCoTKjnpwcHFoO7noeCt-4" value="&lt;span style=&quot;font-size: 16px; color: rgb(51, 51, 51); font-family: &amp;quot;pingfang sc&amp;quot;, &amp;quot;lantinghei sc&amp;quot;, &amp;quot;microsoft yahei&amp;quot;, &amp;quot;hiragino sans gb&amp;quot;, &amp;quot;microsoft sans serif&amp;quot;, &amp;quot;wenquanyi micro hei&amp;quot;, helvetica, sans-serif;&quot;&gt;Handler&lt;/span&gt;" style="ellipse;whiteSpace=wrap;html=1;fillColor=#cce5ff;strokeColor=none;labelBackgroundColor=none;" vertex="1" parent="1">
          <mxGeometry x="80" y="320" width="210" height="100" as="geometry" />
        </mxCell>
        <mxCell id="qCoTKjnpwcHFoO7noeCt-9" value="3 通知" style="edgeStyle=orthogonalEdgeStyle;rounded=0;orthogonalLoop=1;jettySize=auto;html=1;fontSize=16;" edge="1" parent="1" source="qCoTKjnpwcHFoO7noeCt-6" target="qCoTKjnpwcHFoO7noeCt-8">
          <mxGeometry relative="1" as="geometry" />
        </mxCell>
        <mxCell id="qCoTKjnpwcHFoO7noeCt-6" value="&lt;span style=&quot;font-size: 16px ; color: rgb(51 , 51 , 51) ; font-family: &amp;#34;pingfang sc&amp;#34; , &amp;#34;lantinghei sc&amp;#34; , &amp;#34;microsoft yahei&amp;#34; , &amp;#34;hiragino sans gb&amp;#34; , &amp;#34;microsoft sans serif&amp;#34; , &amp;#34;wenquanyi micro hei&amp;#34; , &amp;#34;helvetica&amp;#34; , sans-serif&quot;&gt;&lt;br&gt;Asynchronous Operation Processor&lt;/span&gt;" style="ellipse;whiteSpace=wrap;html=1;fillColor=#cce5ff;strokeColor=none;labelBackgroundColor=none;verticalAlign=top;" vertex="1" parent="1">
          <mxGeometry x="510" y="120" width="330" height="120" as="geometry" />
        </mxCell>
        <mxCell id="qCoTKjnpwcHFoO7noeCt-7" value="异步 I/O 操作" style="rounded=1;whiteSpace=wrap;html=1;labelBackgroundColor=none;fontSize=16;fillColor=#ffcc99;strokeColor=none;" vertex="1" parent="1">
          <mxGeometry x="620" y="180" width="110" height="40" as="geometry" />
        </mxCell>
        <mxCell id="qCoTKjnpwcHFoO7noeCt-10" value="4. 回调" style="edgeStyle=orthogonalEdgeStyle;rounded=0;orthogonalLoop=1;jettySize=auto;html=1;entryX=1;entryY=0.5;entryDx=0;entryDy=0;fontSize=16;" edge="1" parent="1" source="qCoTKjnpwcHFoO7noeCt-8" target="qCoTKjnpwcHFoO7noeCt-4">
          <mxGeometry relative="1" as="geometry" />
        </mxCell>
        <mxCell id="qCoTKjnpwcHFoO7noeCt-8" value="&lt;span style=&quot;font-size: 16px; color: rgb(51, 51, 51); font-family: &amp;quot;pingfang sc&amp;quot;, &amp;quot;lantinghei sc&amp;quot;, &amp;quot;microsoft yahei&amp;quot;, &amp;quot;hiragino sans gb&amp;quot;, &amp;quot;microsoft sans serif&amp;quot;, &amp;quot;wenquanyi micro hei&amp;quot;, helvetica, sans-serif;&quot;&gt;Proactor&lt;/span&gt;" style="ellipse;whiteSpace=wrap;html=1;fillColor=#cce5ff;strokeColor=none;labelBackgroundColor=none;" vertex="1" parent="1">
          <mxGeometry x="570" y="320" width="210" height="100" as="geometry" />
        </mxCell>
        <mxCell id="qCoTKjnpwcHFoO7noeCt-16" value="请求" style="edgeStyle=none;rounded=0;orthogonalLoop=1;jettySize=auto;html=1;fontSize=16;" edge="1" parent="1" source="qCoTKjnpwcHFoO7noeCt-15" target="qCoTKjnpwcHFoO7noeCt-1">
          <mxGeometry relative="1" as="geometry" />
        </mxCell>
        <mxCell id="qCoTKjnpwcHFoO7noeCt-15" value="client" style="rounded=1;whiteSpace=wrap;html=1;labelBackgroundColor=none;fontSize=16;fillColor=#ffcccc;strokeColor=none;" vertex="1" parent="1">
          <mxGeometry x="-110" y="160" width="90" height="40" as="geometry" />
        </mxCell>
      </root>
    </mxGraphModel>
  </diagram>
</mxfile>
